<mxfile host="app.diagrams.net" modified="2023-08-08T10:30:05.962Z" agent="Mozilla/5.0 (Windows NT 10.0; Win64; x64) AppleWebKit/537.36 (KHTML, like Gecko) Chrome/115.0.0.0 Safari/537.36" etag="huKV3pXtWw9yONZfIvLE" version="21.6.6" type="device">
  <diagram name="Page-1" id="Y6qgnIoQePtk00BtLu1i">
    <mxGraphModel dx="2045" dy="625" grid="1" gridSize="10" guides="1" tooltips="1" connect="1" arrows="1" fold="1" page="1" pageScale="1" pageWidth="850" pageHeight="1100" math="0" shadow="0">
      <root>
        <mxCell id="0" />
        <mxCell id="1" parent="0" />
        <mxCell id="TgW0zND3qpG-d-xNJsCS-1" value="&lt;font style=&quot;font-size: 18px;&quot;&gt;/start&lt;/font&gt;" style="rounded=0;whiteSpace=wrap;html=1;" parent="1" vertex="1">
          <mxGeometry y="40" width="120" height="60" as="geometry" />
        </mxCell>
        <mxCell id="TgW0zND3qpG-d-xNJsCS-2" value="" style="endArrow=classic;html=1;rounded=0;exitX=0.5;exitY=1;exitDx=0;exitDy=0;" parent="1" source="TgW0zND3qpG-d-xNJsCS-1" edge="1">
          <mxGeometry width="50" height="50" relative="1" as="geometry">
            <mxPoint x="490" y="490" as="sourcePoint" />
            <mxPoint x="60" y="170" as="targetPoint" />
          </mxGeometry>
        </mxCell>
        <mxCell id="TgW0zND3qpG-d-xNJsCS-3" value="&lt;div&gt;Вітаємо, це бот сітки аптек Ледіком.&lt;/div&gt;&lt;div&gt;&lt;span style=&quot;background-color: initial;&quot;&gt;&lt;br&gt;&lt;/span&gt;&lt;/div&gt;&lt;div&gt;&lt;span style=&quot;background-color: initial;&quot;&gt;Тут ви зможете:&lt;/span&gt;&lt;/div&gt;&lt;div&gt;* поставити нагадування про прийом ліків&lt;/div&gt;&lt;div&gt;* знайти найближчу аптеку у своєму місті&amp;nbsp;&lt;/div&gt;&lt;div&gt;&lt;br&gt;&lt;/div&gt;&lt;div&gt;Також тут регулярно з&#39;являтимуться опитування та діє реферальна програма. Будьте активними і отримуватимете призи у вигляді знижок на наші товари.&lt;/div&gt;&lt;div&gt;&lt;br&gt;&lt;/div&gt;&lt;div&gt;Зараз ви можете активувати тимчасовий купон&amp;nbsp; із знижкою 10% на всі закупки. Увага! Купон діє протягом 5 хв, тому активовуйте його виключно при касі.&lt;/div&gt;&lt;div&gt;&lt;br&gt;&lt;/div&gt;&lt;div&gt;Кнопка: &quot;Активувати купон&quot;&lt;/div&gt;&lt;div&gt;&lt;br&gt;&lt;/div&gt;" style="rounded=0;whiteSpace=wrap;html=1;align=left;" parent="1" vertex="1">
          <mxGeometry x="-146.87" y="170" width="417.5" height="250" as="geometry" />
        </mxCell>
        <mxCell id="TgW0zND3qpG-d-xNJsCS-4" value="" style="strokeWidth=2;html=1;shape=mxgraph.flowchart.annotation_2;align=left;labelPosition=right;pointerEvents=1;rotation=90;" parent="1" vertex="1">
          <mxGeometry x="14.66" y="225.36" width="85.62" height="478.69" as="geometry" />
        </mxCell>
        <mxCell id="TgW0zND3qpG-d-xNJsCS-7" value="З&#39;являється купон і після 5 хв повідомлення видаляється" style="rounded=0;whiteSpace=wrap;html=1;" parent="1" vertex="1">
          <mxGeometry x="-240" y="500" width="120" height="60" as="geometry" />
        </mxCell>
        <mxCell id="TgW0zND3qpG-d-xNJsCS-8" value="Активовано" style="text;html=1;strokeColor=none;fillColor=none;align=center;verticalAlign=middle;whiteSpace=wrap;rounded=0;" parent="1" vertex="1">
          <mxGeometry x="-100" y="431.87" width="60" height="30" as="geometry" />
        </mxCell>
        <mxCell id="TgW0zND3qpG-d-xNJsCS-9" value="Проігноровано" style="text;html=1;strokeColor=none;fillColor=none;align=center;verticalAlign=middle;whiteSpace=wrap;rounded=0;" parent="1" vertex="1">
          <mxGeometry x="150" y="431.87" width="60" height="30" as="geometry" />
        </mxCell>
        <mxCell id="TgW0zND3qpG-d-xNJsCS-12" value="/setnotification" style="rounded=0;whiteSpace=wrap;html=1;" parent="1" vertex="1">
          <mxGeometry x="-160" y="675" width="120" height="60" as="geometry" />
        </mxCell>
        <mxCell id="TgW0zND3qpG-d-xNJsCS-13" value="" style="strokeWidth=2;html=1;shape=mxgraph.flowchart.annotation_1;align=left;pointerEvents=1;rotation=90;" parent="1" vertex="1">
          <mxGeometry x="273.75" y="316.25" width="102.5" height="495" as="geometry" />
        </mxCell>
        <mxCell id="TgW0zND3qpG-d-xNJsCS-14" value="/showpharmacies" style="rounded=0;whiteSpace=wrap;html=1;" parent="1" vertex="1">
          <mxGeometry x="510" y="615" width="120" height="60" as="geometry" />
        </mxCell>
        <mxCell id="TgW0zND3qpG-d-xNJsCS-16" value="" style="endArrow=classic;html=1;rounded=0;exitX=0.5;exitY=1;exitDx=0;exitDy=0;" parent="1" source="TgW0zND3qpG-d-xNJsCS-12" edge="1">
          <mxGeometry width="50" height="50" relative="1" as="geometry">
            <mxPoint x="-120" y="839.05" as="sourcePoint" />
            <mxPoint x="-100" y="845" as="targetPoint" />
          </mxGeometry>
        </mxCell>
        <mxCell id="TgW0zND3qpG-d-xNJsCS-17" value="вибрати часовий проміжок і час для нагадування" style="rounded=0;whiteSpace=wrap;html=1;" parent="1" vertex="1">
          <mxGeometry x="-160" y="845" width="120" height="60" as="geometry" />
        </mxCell>
        <mxCell id="TgW0zND3qpG-d-xNJsCS-19" value="" style="strokeWidth=2;html=1;shape=mxgraph.flowchart.annotation_1;align=left;pointerEvents=1;rotation=90;" parent="1" vertex="1">
          <mxGeometry x="44.03" y="471.25" width="50" height="347.5" as="geometry" />
        </mxCell>
        <mxCell id="TgW0zND3qpG-d-xNJsCS-20" value="/deletenotification" style="rounded=0;whiteSpace=wrap;html=1;" parent="1" vertex="1">
          <mxGeometry x="190" y="675" width="120" height="60" as="geometry" />
        </mxCell>
        <mxCell id="TgW0zND3qpG-d-xNJsCS-22" value="Показати список нагадувань у вигляді кнопок &quot;InlineKeyboard&quot;" style="rounded=0;whiteSpace=wrap;html=1;" parent="1" vertex="1">
          <mxGeometry x="80" y="835" width="120" height="60" as="geometry" />
        </mxCell>
        <mxCell id="TgW0zND3qpG-d-xNJsCS-24" value="" style="strokeWidth=2;html=1;shape=mxgraph.flowchart.annotation_2;align=left;labelPosition=right;pointerEvents=1;rotation=90;" parent="1" vertex="1">
          <mxGeometry x="200" y="680" width="100" height="210" as="geometry" />
        </mxCell>
        <mxCell id="TgW0zND3qpG-d-xNJsCS-25" value="Є нагадування" style="text;html=1;strokeColor=none;fillColor=none;align=center;verticalAlign=middle;whiteSpace=wrap;rounded=0;" parent="1" vertex="1">
          <mxGeometry x="150" y="750" width="90" height="30" as="geometry" />
        </mxCell>
        <mxCell id="TgW0zND3qpG-d-xNJsCS-26" value="Нема" style="text;html=1;strokeColor=none;fillColor=none;align=center;verticalAlign=middle;whiteSpace=wrap;rounded=0;" parent="1" vertex="1">
          <mxGeometry x="290" y="750" width="60" height="30" as="geometry" />
        </mxCell>
        <mxCell id="TgW0zND3qpG-d-xNJsCS-28" value="У вас немає нагадувань" style="rounded=0;whiteSpace=wrap;html=1;" parent="1" vertex="1">
          <mxGeometry x="300" y="835" width="120" height="60" as="geometry" />
        </mxCell>
        <mxCell id="gRq0MfkSHHqKyp_U5RIG-1" value="" style="endArrow=classic;html=1;rounded=0;exitX=0.5;exitY=1;exitDx=0;exitDy=0;entryX=0.5;entryY=0;entryDx=0;entryDy=0;" edge="1" parent="1" source="TgW0zND3qpG-d-xNJsCS-14" target="gRq0MfkSHHqKyp_U5RIG-2">
          <mxGeometry width="50" height="50" relative="1" as="geometry">
            <mxPoint x="-30" y="590" as="sourcePoint" />
            <mxPoint x="570" y="760" as="targetPoint" />
          </mxGeometry>
        </mxCell>
        <mxCell id="gRq0MfkSHHqKyp_U5RIG-2" value="Виберіть ваше місто:&lt;br&gt;&quot;Список міст&quot;" style="rounded=0;whiteSpace=wrap;html=1;" vertex="1" parent="1">
          <mxGeometry x="500" y="758.75" width="140" height="60" as="geometry" />
        </mxCell>
        <mxCell id="gRq0MfkSHHqKyp_U5RIG-3" value="" style="endArrow=classic;html=1;rounded=0;exitX=0.5;exitY=1;exitDx=0;exitDy=0;entryX=0.5;entryY=0;entryDx=0;entryDy=0;" edge="1" parent="1" source="gRq0MfkSHHqKyp_U5RIG-2" target="gRq0MfkSHHqKyp_U5RIG-4">
          <mxGeometry width="50" height="50" relative="1" as="geometry">
            <mxPoint x="-30" y="590" as="sourcePoint" />
            <mxPoint x="570" y="900" as="targetPoint" />
          </mxGeometry>
        </mxCell>
        <mxCell id="gRq0MfkSHHqKyp_U5RIG-4" value="Список аптек з адресами і посиланнями на гугл карти" style="rounded=0;whiteSpace=wrap;html=1;" vertex="1" parent="1">
          <mxGeometry x="505" y="905" width="130" height="75" as="geometry" />
        </mxCell>
      </root>
    </mxGraphModel>
  </diagram>
</mxfile>
